<svg xmlns="http://www.w3.org/2000/svg" viewBox="0 0 1140 1280">
<rect width="100%" height="100%" rx="282" fill="#24270e"/>
<g transform="translate(140,1140) scale(1,-1)"><path fill="#ff99ff" d="M510.0 522.0C510.0 610.0 454.0 716.0 338.0 716.0C179.0 716.0 -30.0 526.0 -30.0 271.0C-30.0 81.0 94.0 -16.0 224.0 -16.0C369.0 -16.0 500.0 110.0 500.0 254.0C500.0 306.0 480.0 357.0 437.0 390.0C488.0 404.0 510.0 462.0 510.0 522.0ZM112.0 276.0C112.0 415.0 205.0 535.0 282.0 535.0C346.0 535.0 320.0 465.0 343.0 423.0C337.0 424.0 330.0 424.0 324.0 424.0C247.0 424.0 173.0 370.0 173.0 295.0C173.0 239.0 210.0 204.0 261.0 204.0C292.0 204.0 328.0 216.0 354.0 235.0C325.0 161.0 271.0 137.0 223.0 137.0C157.0 137.0 112.0 192.0 112.0 276.0Z M890.0 487.0C890.0 608.0 840.0 717.0 743.0 717.0C600.0 717.0 450.0 536.0 450.0 255.0C450.0 98.0 509.0 0.0 597.0 0.0C688.0 0.0 724.0 134.0 603.0 326.0C632.0 287.0 687.0 263.0 729.0 263.0C821.0 263.0 890.0 364.0 890.0 487.0ZM645.0 469.0C645.0 506.0 671.0 581.0 715.0 581.0C738.0 581.0 753.0 549.0 753.0 510.0C753.0 453.0 726.0 396.0 691.0 396.0C661.0 396.0 645.0 425.0 645.0 469.0Z"/></g>
</svg>