<svg xmlns="http://www.w3.org/2000/svg" viewBox="345 130 1205 795" fill="currentColor" role="img" aria-label="Guilty Pleasure Café">
  <path d="M1546.5,445.9c0-24.77-23-46-61.03-46-49.62,0-91.14,36.59-114.38,83.21-4.91-32.68-24.67-66.8-49.04-77.23,13.99-7.28,22.67-14.15,24.11-15.31,81.54-66.27,83.22-213.76,45.66-233.72-1.82-.97-5.37-2.81-10.31-2.39-37.85,3.29-55.13,134.72-60.28,179.73-1.14-10.93-12.46-116.5-31.57-158.19-6.46-14.11-13.88-21.03-21.81-24.47-1.15-.5-16.44-6.86-30.74,1-4.13,2.28-8.58,5.97-12.73,12.91-18.31-12.41-46.02-21.49-71.41-23.15-39.69-2.59-87.45,12.2-94.71,37.38-.04.14-.1.33-.16.55.26-3.22.4-6.33.4-9.31,0-19.22-10.63-28.62-22.49-28.62s-27.81,10.22-47.03,42.12c-14.66,24.27-29.48,61.53-38.65,98.12,4.82-28.86,7.37-56.25,7.37-74.97,0-33.81-4.32-65.27-18.08-65.27-24.67,0-45.37,59.33-58.61,119.73,2.89-24.64,3.17-43.64,3.19-48.57.1-17.02,0-56.18-21.55-67.87-4.17-2.26-8.87-3.29-14.02-3.29-28.79,0-52.37,46.37-45.18,198.69-10.79-9.2-19.59-14.39-35.18-16.39-11.59-1.6-22.39.4-29.98,2.8,21.58-39.98,49.57-107.55,52.37-143.13,2-22.38-3.6-41.97-17.99-41.97-20.87,0-61.1,56.75-74.46,127.19-1.42-2.16-2.99-4.3-4.75-6.39-2.16-2.57-4.52-4.95-7.03-7.16,19.35-16.85,26.72-55,13.99-82.2-11.31-24.18-35.36-33.44-38.94-34.75-44.46-16.34-95.98,15.88-122.13,41.95-57.2,57.04-72.78,164.28-24.82,215.67,8.45,9.06,20.66,18.29,35.61,24.94-7.29,6.78-15.3,16.79-23.86,31.01-1.98,3.27-3.95,6.78-5.92,10.48-5.89-28.97-20.49-53.27-39.24-59.05-5.73-1.77-17.87-3.66-38.5,8.33-96.85,56.31-118.3,265.48-65.95,293.6,10.92,5.87,25.63,4.16,35.73-2.41,27.15-17.64,27.95-74.78,4.21-146.81,2.28,3.57,15.83,24.09,38.63,26.11,10.04.89,18.93-2.15,26.38-6.65-2.78,15.05-4.38,29.5-4.38,42.39,0,55.74,35.21,84.25,83.41,84.25,28.67,0,56.78-15.39,67.1-41.3,18.59,25.44,45.23,41.3,76.51,41.3,19.76,0,34.78-6.33,44.29-15.6,3.16,4.26,6.92,7.78,11.33,10.39,9.58,5.69,20.1,5.21,20.1,5.21,2.51-.05,11-.33,18.78-5.45,11.05-7.27,14.39-20.2,16.25-27.42,9.54-36.89-12.61-96.52-15.51-104.14,6.31,6.6,19.07,18.06,38.42,23.92,10.53,3.19,19.9,3.77,26.85,3.59-24.02,35.58-32.72,71.79-20.69,91.23,6.33,10.25,15.79,14.93,15.79,14.93,13,6.43,27.09,3.11,34.46-.57,2.48-1.25,9.47-5.16,15.91-17.73,13.44,18.08,39.51,28.34,69.13,28.34s52.29-13.86,64.03-35.18c4.74,9.22,11.32,17.56,20.56,23.85,10.71,7.27,24.1,11.34,40.32,11.34,45.4,0,77-33.98,97.07-78.67-.19,4.48-.28,8.8-.28,12.94,0,24.75,6.8,59.32,28.39,59.32,26.41,0,34.01-27.32,36.01-105.83l.4-17.07c7.2,40.96,33.99,122.9,75.99,122.9,2.48,0,11.51.34,19.22-5.41,10.92-8.13,12.02-22.9,12.55-30.01.44-5.93-.66-12.35-2.88-18.99,19.57,36.76,52.35,60.81,92.16,60.81,35.82,0,57.05-19.45,59.71-40.69,3.54-28.74-23.89-57.93-130.92-49.53,66.79-8.4,91.12-38.92,91.12-71.65,0-41.77-49.66-77.55-60.53-84.6,10.97,6.84,38.02,23.12,69.37,23.12,37.15,0,54.84-15.92,54.84-40.24ZM1056.86,190.78c.15,3.84,1.03,8.17,3.52,12.23,5.65,9.22,16.2,11.58,20.21,12.47,19.27,4.31,35.38-7.82,38.44-10.22-12.59,32.72-30.73,89.15-38.44,132.44-5.77-5.36-13.54-8.54-22.91-8.54-20.44,0-45.79,9-69.1,29.85,34.27-59.72,61.51-123.08,68.28-168.23ZM589.56,216c4.18-3.33,20.74-16.52,30.57-11.24,8.34,4.47,5.58,18.86,8.11,32.62-6.9.67-13.68,2.3-20.09,4.97-4.56,1.9-32.35,13.37-38.09,40.83-.65,3.16-3.76,19.64,5.51,34.45,11.89,19,39.34,27.6,67.26,19.42-1.56,3.8-4.46,9.53-9.8,14.99-14.02,14.34-32.7,14.35-35.64,14.31-16.57-.25-30.49-9.29-38.21-18.16-28.18-32.39-7.78-101.8,30.38-132.19ZM599.48,567.37c0,11.73,1.08,23.13,3.14,34-1.9-.29-3.87-.44-5.92-.44-20.96,0-46.95,9.22-70.84,30.6,40.66-70.84,71.67-146.7,71.67-192.81,0-2.69-.2-5.18-.59-7.5,24.26-.41,42.99-8.94,52.58-14.23,21.93-12.09,39.52-31.42,49.91-53.98,7.5,28.14,20.11,38.99,23.57,41.8,4.46,3.62,9.34,6.57,14.47,8.91-3.83-.54-7.86-.83-12.09-.83-72.06,0-125.9,82.42-125.9,154.48ZM939.97,610.57c-6.4,0-12.09,1.28-17.03,3.54,1.88-73.25-15.49-196.97-65.53-204.39-57.84-8.56-113.9,144.21-120.51,218.34-18.63-8.96-49.92-13.64-99.32-9.76,62.54-7.87,85.31-36.44,85.31-67.09,0-39.75-48.04-73.71-57.15-79.51,9.94,6.21,35.62,21.95,65.44,21.95,34.78,0,51.35-14.91,51.35-37.69,0-14.88-8.88-28.39-24.66-36.17,13.14,2.11,26.53,1.15,37.93-2.14,41.48-11.94,63.5-56.49,75.18-101.06-3.68,24.68-5.68,46.01-5.68,58.88,0,20.44,5.9,42.07,22.41,42.07,24.52,0,43.58-47.27,55.57-99.37-1.37,9.91-2.14,19.42-2.14,28.17,0,27.6,8.86,48.35,23.73,62.09-26.51,11.08-42.92,37.19-42.92,70.11,0,68.32,69.15,143.77,82.57,158.02-21.8-15.09-44.85-25.99-64.55-25.99ZM1169.24,394.13c9.99,28.52,64.3,30.35,73.61,30.67,8.32.28,16.32-.18,23.94-1.18-14.99,16.12-27.59,40.19-37.62,67.47-.43-50.82-14.58-69.15-37.29-69.15-30.18,0-54.91,46.59-47.36,199.6-11.32-9.24-20.54-14.46-36.89-16.46-12.16-1.61-23.47.4-31.43,2.81,9.54-16.42,79-137.59,46.07-167.83-7.14-6.55-16.31-6.29-18.24-6.23-34.71,1-66.26,68.38-72.89,138.15-23.88-45.07-60.72-85.07-67.7-92.6,15.09,11.73,31.86,17.6,46.95,17.6,25.98,0,45.27-20.96,45.27-44.01,0-10.55-3.64-20.09-9.88-27.96,14.25-4.4,26.94-12.78,35.41-24.43,5.81,16.9,17.55,27.95,35.38,27.95,42.12,0,51.12-53.57,51.12-95.69,0-46.61-7.36-92.82-14.72-128.4,20.44,14.32,39.66,20.86,56.02,20.86,2.36,0,4.63-.13,6.8-.37.72,4.84,1.6,8.94,2.32,11.95,14.12,59.63,62.63,111.1,77.94,126.59-58.52-21.38-108.06-20.71-123.16,2.18-5.11,7.73-6.96,19.05-3.65,28.48ZM1300.66,558c7.6,1.7,14.81,2.56,21.61,2.56,12.13,0,21.79-3.03,29.27-8.45-.34,4.27-.53,8.53-.53,12.76,0,23.88,4.19,46.44,11.8,66.33-19.58-34.98-58.94-70.36-62.15-73.2Z"/>
  <g>
    <path d="M801.15,868.69c-2.23,14.88-8.93,25.49-26.79,25.49-22.14,0-29.58-17.12-29.58-42.23s7.44-42.05,29.58-42.05c17.67,0,24.37,10.6,26.79,25.12h33.49c-3.16-30.88-22.51-52.47-58.79-52.47-42.05,0-64.56,29.4-64.56,69.4s22.51,69.58,64.56,69.58c36.47,0,55.81-21.58,58.79-52.84h-33.49Z"/>
    <path d="M910.09,785.53h-33.49l-48.19,133.03h33.49l8.56-27.72h45.58l8.56,27.72h33.49l-48-133.03ZM878.09,865.35l15.07-49.12h.37l15.07,49.12h-30.51Z"/>
    <polygon points="963.74 918.56 997.23 918.56 997.23 869.44 1050.62 869.44 1050.62 842.09 997.23 842.09 997.23 812.88 1062.72 812.88 1062.72 785.53 963.74 785.53 963.74 918.56"/>
    <polygon points="1118.53 746.83 1110.53 772.88 1132.86 772.88 1152.02 746.83 1118.53 746.83"/>
    <polygon points="1104.58 863.86 1162.63 863.86 1162.63 836.51 1104.58 836.51 1104.58 812.88 1171.93 812.88 1171.93 785.53 1071.09 785.53 1071.09 918.56 1173.05 918.56 1173.05 891.21 1104.58 891.21 1104.58 863.86"/>
  </g>
</svg>
