<svg xmlns="http://www.w3.org/2000/svg" viewBox="494 141 935 698" fill="currentColor" role="img" aria-label="GP's">
  <path class="cls-1" d="M1409.05,328.98c-41.28-50.9-149.73-52.75-214.41-2-5.3,4.16-21.36,17.36-34.76,38.13-13.09-34.6-33.9-61.09-58.92-68.8-10.07-3.11-31.38-6.42-67.59,14.63-73.67,42.83-122.49,136.03-146.7,231.93-2.95-4.76-6.32-9.46-10.18-14.04-3.98-4.73-8.33-9.12-12.95-13.19,35.67-31.08,49.24-101.42,25.78-151.56-20.86-44.58-65.18-61.64-71.78-64.06-81.98-30.12-176.96,29.28-225.16,77.34-105.46,105.16-134.18,302.86-45.76,397.61,26.62,28.53,73.48,58.03,131.2,63.1,54.75,4.81,97.34-14.31,117.66-25.51,31.57-17.41,58.26-42.94,77.57-73.09,6.78,42.66,21.63,74.67,44.51,86.96,19.18,10.3,45,7.3,62.75-4.23,47.66-30.97,49.06-131.3,7.38-257.76,4.01,6.27,27.79,42.3,67.83,45.84,47.81,4.24,80.8-42.23,88.65-53.27,5.11-7.18,9.51-14.88,13.28-22.93,23.02,58.13,65.58,120.14,122.7,178.49-59.38-46.35-125.56-63.94-170.22-40.5-8.64,4.53-34.08,17.88-42.88,45.72-8.73,27.62,4.12,52.95,6.51,57.66,27.91,55.01,122.45,79.74,193.87,51.85,6.99-2.73,50.21-20.19,73.93-58.11,49.59-79.24-.64-224.5-125.72-358.33,6.61,3.9,114.7,66.15,177.87,23.47,7.41-5,27.88-18.82,33.37-43.32,6.84-30.52-14.09-57.41-17.83-62.03ZM765.08,692.81c-25.85,26.44-60.28,26.47-65.7,26.39-30.55-.46-56.21-17.12-70.44-33.48-51.95-59.72-14.36-187.67,56-243.7,7.7-6.14,38.24-30.45,56.36-20.73,15.37,8.24,10.27,34.78,14.94,60.15-12.71,1.23-25.22,4.24-37.03,9.15-8.4,3.5-59.64,24.65-70.21,75.27-1.22,5.82-6.94,36.22,10.14,63.53,21.92,35.02,72.54,50.87,124,35.8-2.87,7-8.22,17.55-18.06,27.62Z"></path>
  <path class="cls-1" d="M1230.92,237.55c29.41-16.99,40.52-5.88,70.58-22.87,25.49-15.03,28.75-42.48,14.38-59.47-14.38-16.99-54.9-21.57-88.22,3.27-43.79,33.33-49.67,111.1-46.4,129.4,9.8-17.64,24.18-35.29,49.67-50.32Z"></path>
</svg>
