<svg xmlns="http://www.w3.org/2000/svg" viewBox="170 371 1580 216" fill="currentColor" role="img" aria-label="GP's — Guilty Pleasure Café">
  <path class="cls-1" d="M1376.64,444.58c0-13.14-12.2-24.4-32.38-24.4-25.71,0-47.33,18.53-59.81,42.45-3.31-21.01-18.82-43.17-36.5-43.37-18.35.22-32.95,18.99-43.25,43.49,0-.59.01-1.17.01-1.74,0-30.05-7.8-40.83-20.42-40.83-16.51,0-30.04,26.61-25.92,113.99-6.19-5.27-11.23-8.25-20.18-9.4-6.65-.92-12.84.23-17.2,1.61,12.38-22.94,28.44-61.7,30.05-82.12,1.14-12.84-2.07-24.08-10.33-24.08-22.34,0-38.27,55.17-43.15,91.33-13-25.61-34.33-48.78-38.27-53.03,8.26,6.43,17.43,9.64,25.69,9.64,14.22,0,24.77-11.47,24.77-24.09,0-15.82-14.91-27.52-33.26-27.52-23.85,0-39.91,17.43-39.91,41.51,0,37.39,37.85,78.68,45.19,86.48-11.93-8.26-24.55-14.23-35.33-14.23-2.86,0-5.47.48-7.8,1.32,0-.21.01-.42.01-.63,0-62.38-19.27-110.78-37.39-111.24-31.77-.85-64.32,78.54-68.75,118.85-10.49-4.45-27.39-6.66-53.27-4.63,34.63-4.35,47.25-20.18,47.25-37.15,0-21.34-24.98-39.66-31.12-43.7,5.84,3.63,19.69,11.82,35.71,11.82,19.26,0,28.44-8.26,28.44-20.88s-11.93-23.85-31.66-23.85c-39.91,0-69.72,45.64-69.72,85.55,0,7.6.82,14.93,2.36,21.85-.89-.11-1.8-.18-2.75-.18-11.73,0-26.28,5.16-39.65,17.12,22.75-39.65,40.12-82.11,40.12-107.92,0-11.02-6.1-16.42-12.91-16.42s-15.95,5.86-26.98,24.16c-1.84,3.05-3.69,6.47-5.5,10.15-2.73-17.3-11.1-32.28-22.08-35.67-3.14-.96-9.78-2-21.06,4.56-53.01,30.82-64.74,145.28-36.1,160.67,5.98,3.21,14.03,2.27,19.56-1.32,14.85-9.65,15.29-40.92,2.3-80.34,1.25,1.96,8.66,13.19,21.14,14.29,6.8.6,12.62-2.08,17.19-5.51-1.83,9.27-2.9,18.2-2.9,26.08,0,31.2,19.71,47.16,46.69,47.16,16.46,0,32.61-9.07,38-24.25,10.18,12.73,24.24,20.58,40.6,20.58,10.28,0,18.24-3.1,23.54-7.73,4.08,4.84,9.81,7.73,17.28,7.73,15.14,0,24.31-10.33,24.31-26.61,0-11.24-3.89-25.46-11.69-40.37,2.98,2.52,7.8,6.42,14.91,8.72,6.65,2.52,12.38,2.06,16.51,2.06-7.11,11.7-10.78,21.1-10.78,33.03,0,13.53,7.57,23.17,22.02,23.17,8.32,0,14.24-4.46,18.33-11.3,7.48,9.55,21.5,14.97,37.41,14.97s28.75-7.67,35.15-19.45c6.44,12.03,17.35,19.45,33.2,19.45,23.05,0,39.6-16.71,50.64-39.5-.04,1.34-.06,2.66-.06,3.94,0,13.31,3.9,31.89,16.29,31.89,15.13,0,19.49-14.68,20.64-56.89l.23-9.17c3.23,18.74,9.5,32.56,14.31,41.28,6.33,11.51,12.6,22.51,24.06,25.04,1.41.31,9.43,2.08,15.61-2.52,5.86-4.36,6.71-11.93,7.1-15.48.32-2.91.02-5.94-.77-9.05,10.48,18.48,27.43,30.46,47.89,30.46,19,0,30.26-10.33,31.67-21.59,1.88-15.25-12.67-30.73-69.45-26.27,35.43-4.46,48.33-20.65,48.33-38.01,0-22.17-26.37-41.16-32.11-44.88,5.81,3.62,20.16,12.27,36.81,12.27,19.7,0,29.09-8.45,29.09-21.35ZM1244.05,502.75c4.36.92,8.49,1.38,12.39,1.38,7.02,0,12.6-1.66,16.9-4.62-.26,2.74-.4,5.47-.4,8.18,0,11.48,1.83,22.38,5.18,32.17-11.13-18.18-31.53-35.05-34.07-37.11Z"></path>
  <path class="cls-1" d="M1749.11,444.58c0-13.14-12.2-24.4-32.38-24.4-16.3,0-30.95,7.45-42.68,19-2.26-11.14-12.79-17.58-26.38-19-31.76-2.28-54.4,26.32-63.79,60.74-6.72-36.44-20.15-60.87-33-61.2-25.33-.68-51.16,49.68-62.84,90.55-2.38-2.19-5.28-3.52-8.49-3.85-10.32-1.15-17.2,6.65-20.18,18.81-3.21,12.61-11.47,20.18-20.42,20.18-11.47,0-19.72-11.24-19.72-32.57,0-25.46,16.97-57.57,33.03-57.57,8.48,0,8.25,9.41,10.09,15.37,3.21,10.32,8.71,14.22,16.97,14.22,12.16,0,20.64-14.22,20.64-32.57s-13.07-35.78-35.09-35.78c-43.81,0-79.59,52.75-79.59,101.38,0,34.86,18.81,66.52,51.84,66.52,21.69,0,37.03-10.44,46.36-22.92,3.26,11.44,10.85,19.25,23.14,19.25,15.13,0,24.31-10.33,24.31-26.61,0-11.24-3.9-25.46-11.7-40.37,2.98,2.52,7.8,6.42,14.91,8.72,6.65,2.52,12.38,2.06,16.51,2.06-7.11,11.7-10.78,21.1-10.78,33.03,0,13.53,7.57,23.17,22.02,23.17s21-12.28,24.21-27.32c5.82,15.27,15.19,27.44,27.86,27.32,10.78-.23,17.2-8.95,16.97-19.73-.46-14.45-6.65-27.29-24.08-49.08,1.14.68,12.15,8.71,24.77,8.71,5.36,0,10.34-1.45,14.16-4.26,3.12,38.17,26.68,68.03,58.99,68.03,19,0,30.26-10.33,31.67-21.59,1.88-15.25-12.67-30.73-69.44-26.27,35.42-4.46,48.33-20.65,48.33-38.01,0-22.17-26.38-41.16-32.12-44.88,5.8,3.61,20.17,12.27,36.81,12.27,19.71,0,29.09-8.45,29.09-21.35ZM1648.12,485.95c-7.2-9.9-21.44-17.33-38.52-23.34,16.11,3.32,33.6,4.99,46.36,1.9-3.39,6.84-6.04,14.09-7.84,21.44Z"></path>
  <path class="cls-1" d="M1695.46,400.96c9.09-5.25,12.52-1.82,21.82-7.07,7.88-4.65,8.89-13.13,4.44-18.38-4.44-5.25-16.97-6.67-27.27,1.01-13.53,10.3-15.35,34.34-14.34,40,3.03-5.45,7.47-10.91,15.35-15.55Z"></path>
  <path class="cls-1" d="M686.13,421.21c-1.11-.59-3.27-1.72-6.28-1.46-23.05,2-33.57,82.03-36.7,109.43-.51-4.12-11.23-88.44-31.26-102.97-9.35-6.78-16.88-5.44-16.88-5.44-6.92,1.22-11.13,6.88-12.4,8.59-.2.28-.45.62-.72,1.04-10.02-5.42-23.2-9.26-35.29-10.22-18.26-1.46-44.27,2.87-50.78,17.44-.16.34-.55,1.23-.96,2.45.08-1.31.14-2.6.14-3.84,0-10.78-5.97-16.05-12.62-16.05s-15.6,5.73-26.38,23.62c-6.82,11.3-13.71,27.62-18.79,44.57,1.5-11.63,2.28-22.2,2.28-30.12,0-19.72-2.52-38.07-10.55-38.07-14.02,0-25.84,32.87-33.58,67.15,1.15-9.17,1.7-18.1,1.7-26.32,0-30.05-7.79-40.83-20.41-40.83-16.51,0-30.05,26.61-25.92,113.99-6.19-5.27-11.24-8.25-20.18-9.4-6.65-.92-12.85.23-17.2,1.61,12.38-22.94,28.44-61.7,30.04-82.12,1.15-12.84-2.06-24.08-10.32-24.08-18.84,0-33.12,39.22-40.06,73.19-.92-1.5-1.96-2.98-3.16-4.42-1.24-1.5-2.6-2.88-4.03-4.16,11.09-9.8,15.32-31.97,8.02-47.78-6.49-14.05-20.28-19.43-22.34-20.19-25.5-9.5-55.05,9.23-70.04,24.38-32.81,33.15-41.74,95.47-14.24,125.34,8.29,8.99,22.86,18.29,40.82,19.89,17.03,1.52,30.28-4.51,36.6-8.04,10.92-6.1,19.95-15.36,26.05-26.27,4.8,19.4,17.12,32.29,38.02,32.29,32.02,0,51.51-32.23,61.09-68.25-2.72,16.78-4.21,31.56-4.21,40.03,0,11.93,3.44,24.55,13.07,24.55,13.14,0,23.59-23.26,30.63-50.6-.08,1.53-.12,3.03-.12,4.49,0,30.51,19.27,46.11,45.64,46.11,12.4,0,24.61-5.26,31.98-14.46,3.39,8.79,9.83,14.46,19.4,14.46,14.6,0,22.1-11.48,25.7-25.82-.56,4.38,0,8.97,1.81,12.86,7.2,15.52,32.38,16.29,41.72,16.58,35.17,1.08,61.06-19.35,62.91-20.85,49.65-40.35,50.67-130.15,27.8-142.3ZM255.18,540.64c-8.04,8.33-18.75,8.34-20.43,8.32-9.51-.15-17.49-5.4-21.92-10.56-16.16-18.82-4.46-59.16,17.42-76.82,2.4-1.93,11.9-9.6,17.54-6.53,4.78,2.59,3.2,10.96,4.65,18.96-3.96.39-7.85,1.33-11.52,2.88-2.62,1.11-18.56,7.77-21.85,23.73-.37,1.84-2.16,11.42,3.16,20.03,6.82,11.04,22.56,16.03,38.58,11.28-.9,2.21-2.56,5.54-5.63,8.71ZM506.19,528.79c-3.09-2.39-7.02-3.79-11.65-3.79-11.47,0-25.69,5.05-38.77,16.74,18.87-32.86,33.93-67.69,38.08-92.91.22,1.5.69,2.98,1.56,4.36,2.32,3.65,6.32,4.87,8.78,5.63,10.38,3.22,20.09-1.52,23.37-3.32-6.96,18.1-16.95,49.15-21.37,73.29ZM555.87,544.47c-1.3,1.76-2.3,3.81-3,6,1.47-7.66,1.99-15.86,1.99-23.41,0-26.14-4.13-52.06-8.26-72.02,11.47,8.03,22.25,11.7,31.43,11.7.52,0,1.03-.03,1.54-.05.24,1.06.5,2.13.79,3.24,8.95,34.53,32.37,61.93,47.46,77.09-32.85-16.16-62.05-15.96-71.95-2.55Z"></path>
</svg>
